<svg width="1920" height="727" fill="none" xmlns="http://www.w3.org/2000/svg"><path opacity=".702" fill-rule="evenodd" clip-rule="evenodd" d="M2080.04 631.128c-16.18 63.392-153.62 88.263-327 94.48-296.66 10.637-488.97-92.249-751.5-95.98-260.598-3.704-463.745 77.963-751.387 73.372-136.154-2.174-270.747-18.307-290-81-5.104-16.622-.194-35.634 5-48 6.248-14.875 18.135-28.964 35-42.261V0H1920.15v477.466c71.32 26.177 122.14 57.307 145 93.534 14.2 22.492 19.32 42.796 14.89 60.128z" fill="#CCC"/><path opacity=".702" fill-rule="evenodd" clip-rule="evenodd" d="M2080.04 631.128c-16.18 63.392-153.62 88.263-327 94.48-296.66 10.637-488.97-92.249-751.5-95.98-260.598-3.704-463.745 77.963-751.387 73.372-136.154-2.174-270.747-18.307-290-81-5.104-16.622-.194-35.634 5-48 6.248-14.875 18.135-28.964 35-42.261V0H1920.15v477.466c71.32 26.177 122.14 57.307 145 93.534 14.2 22.492 19.32 42.796 14.89 60.128z" fill="#000"/></svg>