<svg width="1920" height="825" fill="none" xmlns="http://www.w3.org/2000/svg"><path fill-rule="evenodd" clip-rule="evenodd" d="M-30.314-163.153c77.975-49.741 199.64-83.866 412.86-53.204 162.9 23.426 250.68 86.329 413.922 95.226 193.634 10.554 311.172 17.245 512.942-35.118 351.84-91.314 575.18-51.944 656.5 28.759 147.23 146.112 113.79 360.066-1.86 546.705C1615.63 981.526 225.534 943.478-69.628 403.833c-94.727-173.191-119.15-465.902 39.314-566.986z" fill="#EEF3FA"/><path fill-rule="evenodd" clip-rule="evenodd" d="M-30.314-163.153c77.975-49.741 199.64-83.866 412.86-53.204 162.9 23.426 250.68 86.329 413.922 95.226 193.634 10.554 311.172 17.245 512.942-35.118 351.84-91.314 575.18-51.944 656.5 28.759 147.23 146.112 113.79 360.066-1.86 546.705C1615.63 981.526 225.534 943.478-69.628 403.833c-94.727-173.191-119.15-465.902 39.314-566.986z" fill="#EEF3FA"/></svg>