<svg width="65" height="70" fill="none" xmlns="http://www.w3.org/2000/svg"><path d="M20.313 26.429V70H65V8.203H27.86c.34 1.319.578 2.677.578 4.102 0 6.045-3.292 11.277-8.125 14.124zm21.87 6.327c-2.103-.51-5.62-1.364-5.62-6.096a6.139 6.139 0 014.062-5.774v-2.429h4.063v2.429a6.139 6.139 0 014.062 5.774h-4.063c0-1.131-.91-2.05-2.03-2.05a2.043 2.043 0 00-2.032 2.05c0 1.346.258 1.562 2.505 2.107 2.103.51 5.62 1.364 5.62 6.096a6.139 6.139 0 01-4.063 5.775v2.428h-4.062v-2.428a6.139 6.139 0 01-4.063-5.775h4.063c0 1.132.91 2.051 2.031 2.051s2.032-.92 2.032-2.05c0-1.347-.258-1.563-2.506-2.108zm-5.62 16.6h20.312v4.101H36.562v-4.102zm0 8.203h20.312v4.101H36.562v-4.1zm-8.126-8.203H32.5v4.101h-4.063v-4.102zm0 8.203H32.5v4.101h-4.063v-4.1z" fill="url(#paint0_linear)"/><path d="M12.188 24.61c6.73 0 12.187-5.51 12.187-12.305C24.375 5.509 18.919 0 12.187 0 5.457 0 0 5.509 0 12.305 0 19.1 5.456 24.609 12.188 24.609zM6.442 9.404l2.872-2.9 2.873 2.9 2.872-2.9 2.872 2.9-2.872 2.9 2.872 2.9-2.872 2.9-2.873-2.9-2.872 2.9-2.872-2.9 2.872-2.9-2.872-2.9z" fill="url(#paint1_linear)"/><defs><linearGradient id="paint0_linear" x1="30.723" y1="18.971" x2="75.574" y2="39.765" gradientUnits="userSpaceOnUse"><stop stop-color="#F2930A"/><stop offset="1" stop-color="#F8D02E"/></linearGradient><linearGradient id="paint1_linear" x1="5.678" y1="4.288" x2="26.86" y2="17.739" gradientUnits="userSpaceOnUse"><stop stop-color="#F2930A"/><stop offset="1" stop-color="#F8D02E"/></linearGradient></defs></svg>