<svg width="70" height="70" fill="none" xmlns="http://www.w3.org/2000/svg"><path d="M35 27.384c7.549 0 13.69-6.143 13.69-13.692C48.69 6.142 42.55 0 35 0S21.31 6.142 21.31 13.692 27.45 27.384 35 27.384zm-6.623-15.155a2.07 2.07 0 012.926 0l1.977 1.977 5.416-5.417a2.07 2.07 0 012.926 2.926l-6.879 6.88a2.063 2.063 0 01-1.463.606c-.53 0-1.059-.202-1.463-.606l-3.44-3.44a2.07 2.07 0 010-2.926z" fill="url(#paint0_linear)"/><path d="M8.052 20.002c4.44 0 8.053-3.613 8.053-8.054 0-4.44-3.613-8.053-8.053-8.053C3.612 3.895 0 7.508 0 11.948c0 4.44 3.612 8.053 8.052 8.053z" fill="url(#paint1_linear)"/><path d="M.794 31.53v16.725a6.955 6.955 0 006.955 6.955h9.064v12.353c0 .941.762 1.704 1.703 1.704h8.032c.94 0 1.704-.763 1.704-1.704V49.744a5.87 5.87 0 00-5.87-5.87h-7.07V31.53a7.26 7.26 0 10-14.518 0z" fill="url(#paint2_linear)"/><path d="M61.948 20.002c4.44 0 8.053-3.613 8.053-8.054 0-4.44-3.613-8.053-8.053-8.053-4.44 0-8.053 3.613-8.053 8.053 0 4.44 3.613 8.053 8.053 8.053z" fill="url(#paint3_linear)"/><path d="M54.688 31.53v12.343h-7.07a5.871 5.871 0 00-5.87 5.872v17.818c0 .941.763 1.704 1.704 1.704h8.032c.94 0 1.703-.763 1.703-1.704V55.21h9.064a6.955 6.955 0 006.955-6.955V31.53a7.26 7.26 0 10-14.518 0z" fill="url(#paint4_linear)"/><path d="M47.047 35.781a2.069 2.069 0 100-4.138H22.953a2.069 2.069 0 000 4.138h9.98v32.15a2.069 2.069 0 104.136 0v-32.15h9.98z" fill="url(#paint5_linear)"/><defs><linearGradient id="paint0_linear" x1="27.688" y1="4.771" x2="51.351" y2="19.941" gradientUnits="userSpaceOnUse"><stop stop-color="#1C468A"/><stop offset="1" stop-color="#5E89D0"/></linearGradient><linearGradient id="paint1_linear" x1="3.752" y1="6.701" x2="17.67" y2="15.624" gradientUnits="userSpaceOnUse"><stop stop-color="#1C468A"/><stop offset="1" stop-color="#5E89D0"/></linearGradient><linearGradient id="paint2_linear" x1="7.19" y1="32.111" x2="36.228" y2="43.471" gradientUnits="userSpaceOnUse"><stop stop-color="#1C468A"/><stop offset="1" stop-color="#5E89D0"/></linearGradient><linearGradient id="paint3_linear" x1="57.647" y1="6.701" x2="71.566" y2="15.624" gradientUnits="userSpaceOnUse"><stop stop-color="#1C468A"/><stop offset="1" stop-color="#5E89D0"/></linearGradient><linearGradient id="paint4_linear" x1="48.145" y1="32.111" x2="77.182" y2="43.471" gradientUnits="userSpaceOnUse"><stop stop-color="#1C468A"/><stop offset="1" stop-color="#5E89D0"/></linearGradient><linearGradient id="paint5_linear" x1="27.461" y1="38.327" x2="55.617" y2="51.614" gradientUnits="userSpaceOnUse"><stop stop-color="#1C468A"/><stop offset="1" stop-color="#5E89D0"/></linearGradient></defs></svg>