<svg width="78" height="66" fill="none" xmlns="http://www.w3.org/2000/svg"><path d="M19.5 38.065c2.103 0 3.809-1.718 3.809-3.837 0-2.12-1.706-3.837-3.809-3.837s-3.809 1.718-3.809 3.837c0 2.12 1.706 3.837 3.809 3.837z" fill="url(#paint0_linear)"/><path d="M19.5 42.67c-2.772 0-5.027 2.272-5.027 5.065v3.837h10.054v-3.837c0-2.793-2.255-5.065-5.027-5.065z" fill="url(#paint1_linear)"/><path d="M59.871 41.135c-12.516 0-22.7-10.26-22.7-22.87 0-2.07.277-4.077.791-5.986H6.855C3.075 12.28 0 15.377 0 19.186v39.907C0 62.901 3.075 66 6.855 66H63.68c3.78 0 6.855-3.099 6.855-6.907V38.449a22.424 22.424 0 01-10.664 2.686zm-22.09.614h8.532a2.294 2.294 0 012.285 2.302 2.294 2.294 0 01-2.285 2.302H37.78a2.294 2.294 0 01-2.285-2.302 2.294 2.294 0 012.285-2.302zm-8.683 12.125a2.294 2.294 0 01-2.285 2.303H12.188a2.294 2.294 0 01-2.286-2.303v-6.14a9.681 9.681 0 013.643-7.574 8.446 8.446 0 01-2.424-5.932c0-4.655 3.759-8.442 8.379-8.442 4.62 0 8.379 3.787 8.379 8.442a8.45 8.45 0 01-2.424 5.932 9.681 9.681 0 013.643 7.575v6.14zm20.87 2.303H37.782a2.294 2.294 0 01-2.285-2.303 2.294 2.294 0 012.285-2.302H49.97a2.294 2.294 0 012.285 2.302 2.294 2.294 0 01-2.285 2.303z" fill="url(#paint2_linear)"/><path d="M59.871 0c-9.996 0-18.129 8.194-18.129 18.265 0 10.072 8.133 18.265 18.13 18.265C69.866 36.53 78 28.337 78 18.265 78 8.194 69.867 0 59.871 0zm5.412 16.055l-6.094 7.368a2.28 2.28 0 01-2.019.813 2.286 2.286 0 01-1.78-1.258l-2.438-4.911a2.31 2.31 0 011.022-3.089 2.277 2.277 0 013.066 1.03l.875 1.763 3.857-4.664a2.274 2.274 0 013.218-.294c.97.814 1.1 2.265.293 3.242z" fill="url(#paint3_linear)"/><defs><linearGradient id="paint0_linear" x1="17.466" y1="31.728" x2="24.077" y2="35.935" gradientUnits="userSpaceOnUse"><stop stop-color="#289328"/><stop offset="1" stop-color="#66D05E"/></linearGradient><linearGradient id="paint1_linear" x1="16.815" y1="44.221" x2="24.858" y2="50.045" gradientUnits="userSpaceOnUse"><stop stop-color="#289328"/><stop offset="1" stop-color="#66D05E"/></linearGradient><linearGradient id="paint2_linear" x1="16.431" y1="21.64" x2="66.77" y2="64.015" gradientUnits="userSpaceOnUse"><stop stop-color="#289328"/><stop offset="1" stop-color="#66D05E"/></linearGradient><linearGradient id="paint3_linear" x1="50.189" y1="6.365" x2="81.658" y2="26.391" gradientUnits="userSpaceOnUse"><stop stop-color="#289328"/><stop offset="1" stop-color="#66D05E"/></linearGradient></defs></svg>