<svg width="82" height="16" fill="none" xmlns="http://www.w3.org/2000/svg"><path d="M8.014 1.928l1.873 3.91 4.279.629-3.09 3.09.096.615.629 3.691-3.787-2.023-3.787 2.023.628-3.691.096-.615-3.09-3.09 4.266-.63.287-.587 1.6-3.322zm0-.834c-.2 0-.383.05-.547.15a.945.945 0 00-.37.41L5.513 4.95l-3.65.533a.999.999 0 00-.493.22.99.99 0 00-.314.45c-.128.374-.046.707.246.998l2.666 2.666-.615 3.705a.893.893 0 00.054.534c.082.173.2.314.356.424l.082.054a.752.752 0 00.095.041.752.752 0 00.301.082h.11a.96.96 0 00.478-.123l3.186-1.709 3.171 1.71a.915.915 0 00.247.095c.082.018.164.027.246.027.218 0 .414-.059.588-.178a.97.97 0 00.341-.423.834.834 0 00.069-.534l-.616-3.705 2.667-2.666c.291-.291.373-.624.246-.998a.991.991 0 00-.315-.45 1.004 1.004 0 00-.492-.22l-3.65-.533L8.93 1.654a.535.535 0 00-.069-.123 1.026 1.026 0 00-.095-.11.476.476 0 00-.096-.095.364.364 0 00-.123-.082.535.535 0 00-.123-.068.488.488 0 00-.123-.041.401.401 0 00-.15-.028.696.696 0 00-.137-.013zm16.119.834l1.873 3.91 4.28.629-3.09 3.09.095.615.629 3.691-3.787-2.023-3.787 2.023.629-3.691.095-.615-3.09-3.09 4.266-.63.287-.587 1.6-3.322zm0-.834c-.2 0-.383.05-.547.15a.945.945 0 00-.37.41L21.632 4.95l-3.65.533a.999.999 0 00-.493.22.99.99 0 00-.314.45c-.128.374-.046.707.246.998l2.666 2.666-.615 3.705a.893.893 0 00.054.534c.082.173.2.314.356.424l.082.054a.745.745 0 00.096.041.757.757 0 00.3.082h.11a.96.96 0 00.478-.123l3.186-1.709 3.172 1.71a.914.914 0 00.246.095c.082.018.164.027.246.027.219 0 .415-.059.588-.178a.971.971 0 00.342-.423.834.834 0 00.068-.534l-.615-3.705 2.666-2.666c.291-.291.373-.624.246-.998a.99.99 0 00-.315-.45 1.004 1.004 0 00-.492-.22l-3.65-.533-1.586-3.295a.535.535 0 00-.069-.123 1.039 1.039 0 00-.095-.11.48.48 0 00-.096-.095.365.365 0 00-.123-.082.535.535 0 00-.123-.068.488.488 0 00-.123-.041.402.402 0 00-.15-.028.695.695 0 00-.137-.013zm16.119.834l1.873 3.91 4.28.629-3.09 3.09.095.615.63 3.691-3.788-2.023-3.787 2.023.629-3.691.096-.615-3.09-3.09 4.265-.63.287-.587 1.6-3.322zm0-.834c-.2 0-.383.05-.547.15a.946.946 0 00-.37.41L37.75 4.95l-3.65.533a.999.999 0 00-.493.22.99.99 0 00-.314.45c-.128.374-.046.707.246.998l2.666 2.666-.615 3.705a.894.894 0 00.054.534c.083.173.201.314.356.424l.082.054a.757.757 0 00.096.041.757.757 0 00.3.082h.11a.96.96 0 00.478-.123l3.186-1.709 3.172 1.71a.915.915 0 00.246.095c.082.018.164.027.246.027.219 0 .415-.059.588-.178a.97.97 0 00.342-.423.834.834 0 00.068-.534L44.3 9.816l2.666-2.666c.291-.291.373-.624.246-.998a.99.99 0 00-.314-.45 1.004 1.004 0 00-.493-.22l-3.65-.533-1.586-3.295a.536.536 0 00-.068-.123 1.016 1.016 0 00-.096-.11.474.474 0 00-.096-.095.365.365 0 00-.123-.082.536.536 0 00-.123-.068.488.488 0 00-.123-.041.402.402 0 00-.15-.028.696.696 0 00-.137-.013zm16.119.834l1.873 3.91 4.28.629-3.09 3.09.095.615.63 3.691-3.788-2.023-3.787 2.023.629-3.691.096-.615-3.09-3.09 4.265-.63.288-.587 1.6-3.322zm0-.834c-.2 0-.383.05-.547.15a.945.945 0 00-.369.41L53.87 4.95l-3.65.533a.992.992 0 00-.492.22.99.99 0 00-.315.45c-.127.374-.045.707.246.998l2.666 2.666-.615 3.705a.893.893 0 00.055.534c.082.173.2.314.355.424l.082.054a.745.745 0 00.096.041.745.745 0 00.3.082h.11a.96.96 0 00.478-.123l3.186-1.709 3.172 1.71a.913.913 0 00.246.095c.082.018.164.027.246.027.219 0 .415-.059.588-.178a.97.97 0 00.342-.423.833.833 0 00.068-.534l-.615-3.705 2.666-2.666c.292-.291.374-.624.246-.998a.99.99 0 00-.314-.45 1.004 1.004 0 00-.493-.22l-3.65-.533-1.586-3.295a.535.535 0 00-.068-.123 1.029 1.029 0 00-.096-.11.474.474 0 00-.096-.095.363.363 0 00-.123-.082.536.536 0 00-.123-.068.486.486 0 00-.123-.041.402.402 0 00-.15-.028.696.696 0 00-.137-.013z" fill="#CDB010"/><path d="M72.49 1.928l1.872 3.91 4.28.629-3.09 3.09.095.615.63 3.691-3.788-2.023-3.787 2.023.63-3.691.095-.615-3.09-3.09 4.266-.63.287-.587 1.6-3.322zm0-.834c-.201 0-.384.05-.548.15a.946.946 0 00-.369.41L69.987 4.95l-3.65.533a1 1 0 00-.492.22.99.99 0 00-.315.45c-.127.374-.045.707.246.998l2.666 2.666-.615 3.705a.894.894 0 00.055.534c.082.173.2.314.355.424l.082.054a.757.757 0 00.096.041.757.757 0 00.3.082h.11a.96.96 0 00.479-.123l3.185-1.709 3.172 1.71a.915.915 0 00.246.095c.082.018.164.027.246.027.22 0 .415-.059.588-.178a.97.97 0 00.342-.423.834.834 0 00.068-.534l-.615-3.705 2.666-2.666c.292-.291.374-.624.246-.998a.99.99 0 00-.314-.45 1.004 1.004 0 00-.492-.22l-3.65-.533-1.587-3.295a.536.536 0 00-.068-.123 1.016 1.016 0 00-.096-.11.474.474 0 00-.096-.095.365.365 0 00-.123-.082.536.536 0 00-.123-.068.488.488 0 00-.123-.041.402.402 0 00-.15-.028.696.696 0 00-.137-.013z" fill="#C4C4C4"/></svg>