<svg width="66" height="66" fill="none" xmlns="http://www.w3.org/2000/svg"><path d="M36.438 0H7.561A7.558 7.558 0 000 7.563v42.624a7.558 7.558 0 007.562 7.563h20.79a21.81 21.81 0 01-2.227-9.625c0-2.392.385-4.73 1.128-6.875a19.87 19.87 0 011.842-4.125 21.791 21.791 0 016.655-7.15c2.447-1.678 5.225-2.888 8.25-3.465V7.562A7.558 7.558 0 0036.437 0zM33 28.188a2.065 2.065 0 01-2.063 2.062 2.052 2.052 0 01-1.457-.605l-2.172-2.172-3.908 3.605a2.06 2.06 0 01-2.423.275l-3.443-1.97-5.764 5.762c-.402.404-.93.605-1.457.605a2.063 2.063 0 01-1.458-3.523l6.875-6.875a2.052 2.052 0 012.48-.332l3.501 2.002 2.676-2.47-1.782-1.782a2.059 2.059 0 01-.448-2.247 2.065 2.065 0 011.905-1.273h6.875c1.139 0 2.063.924 2.063 2.063v6.875z" fill="url(#paint0_linear)"/><path d="M48.125 30.25c-9.856 0-17.875 8.019-17.875 17.875S38.269 66 48.125 66 66 57.981 66 48.125 57.981 30.25 48.125 30.25zm-.344 15.813h.688a5.162 5.162 0 015.156 5.156c0 2.236-1.441 4.127-3.438 4.84v1.004a2.063 2.063 0 01-4.124 0v-.688h-1.376a2.063 2.063 0 010-4.125h3.782a1.032 1.032 0 000-2.063h-.688a5.162 5.162 0 01-5.156-5.156c0-2.236 1.441-4.127 3.438-4.84v-1.004a2.063 2.063 0 014.124 0v.688h1.376a2.063 2.063 0 010 4.125H47.78a1.032 1.032 0 000 2.063z" fill="url(#paint1_linear)"/><defs><linearGradient id="paint0_linear" x1="10.25" y1="10.063" x2="53.567" y2="31.222" gradientUnits="userSpaceOnUse"><stop stop-color="#E63A28"/><stop offset="1" stop-color="#E4766A"/></linearGradient><linearGradient id="paint1_linear" x1="38.578" y1="36.479" x2="69.472" y2="56.286" gradientUnits="userSpaceOnUse"><stop stop-color="#E63A28"/><stop offset="1" stop-color="#E4766A"/></linearGradient></defs></svg>