<svg width="187" height="60" fill="none" xmlns="http://www.w3.org/2000/svg"><path fill-rule="evenodd" clip-rule="evenodd" d="M52.923 25.526c-.724 3.182-1.44 6.365-2.165 9.547-1.469-1.862-2.802-3.828-4.209-5.734.62-2.486 1.18-4.988 1.747-7.49.427-1.924.658-3.985.013-5.89-1.149-3.157-4.826-5.097-8.076-4.306-2.818.603-5.112 2.44-7.561 3.844-6.381 3.702-13.2 6.543-19.861 9.675.562-.966 1.509-1.603 2.292-2.372 4.847-4.45 10.218-8.272 15.492-12.19C33.77 8.274 37.45 6.246 41.49 6.216c3.923-.194 7.794 1.76 10.187 4.837 1.67 2.191 2.412 4.998 2.316 7.737.043 2.293-.577 4.518-1.07 6.736zM5.84 50.17c1.127 3.278 5 5.236 8.319 4.327 2.648-.593 4.798-2.338 7.108-3.658 6.455-3.813 13.41-6.65 20.172-9.845-3.576 3.911-7.868 7.08-12.065 10.287-3.922 2.792-7.563 6.156-12.137 7.863-3.327 1.166-7.195 1.25-10.362-.433C3.51 57.12.922 53.876.372 50.16c-.433-2.354-.203-4.773.332-7.09.897-3.991 1.815-7.974 2.703-11.965a181.464 181.464 0 014.209 5.782c-.63 2.469-1.161 4.96-1.735 7.445-.44 1.904-.72 3.95-.04 5.837z" fill="#2B5AE1"/><path fill-rule="evenodd" clip-rule="evenodd" d="M52.66 52.861c-1.547 3.297-4.593 5.937-8.23 6.615-4.134.941-8.253-.488-12.272-1.328-2.389-.546-4.784-1.07-7.17-1.63 1.798-1.492 3.79-2.734 5.628-4.176 2.767.598 5.514 1.294 8.288 1.871 2.195.423 4.668.46 6.583-.847 2.223-1.564 3.513-4.461 2.94-7.145-.323-1.782-1.188-3.397-2.15-4.912-4.584-7.152-7.868-15.013-11.372-22.716 3.873 3.644 7.102 7.893 10.308 12.114 2.556 3.625 5.622 6.97 7.408 11.07 1.506 3.478 1.8 7.64.04 11.084zM14.903 11.554c-2.18-.404-4.647-.469-6.537.865-1.878 1.323-3.117 3.6-3.009 5.916-.018 2.527 1.343 4.776 2.667 6.836 4.178 6.576 7.14 13.795 10.447 20.817.187.432.305.892.418 1.353-3.907-4.184-7.58-8.58-10.93-13.218-2.599-3.591-5.637-6.999-7.143-11.23C-.37 19.559-.33 15.7 1.382 12.555 2.73 9.899 5.042 7.7 7.891 6.73c2.866-1.024 6.012-.856 8.944-.205 4.008.91 8.02 1.809 12.026 2.73-1.82 1.486-3.781 2.79-5.666 4.19-2.76-.646-5.52-1.306-8.293-1.892z" fill="#E63A28"/><path d="M70.456 56.664c0 .182.14.336.322.336h2.814a2.8 2.8 0 002.8-2.8c0-1.232-.812-2.268-1.918-2.646a2.45 2.45 0 00.938-1.904 2.44 2.44 0 00-2.436-2.45h-2.184a.34.34 0 00-.336.336v9.128zm.686-.35v-4.228h2.45c1.162 0 2.1.952 2.114 2.114a2.121 2.121 0 01-2.114 2.114h-2.45zm0-4.928v-3.5h1.834c.966 0 1.75.784 1.75 1.764 0 .952-.784 1.736-1.75 1.736h-1.834zm7.473 2.814c0 1.54 1.232 2.8 2.772 2.8a2.802 2.802 0 002.814-2.8v-3.738c0-.196-.154-.336-.35-.336a.34.34 0 00-.337.336V54.2a2.136 2.136 0 01-2.127 2.128 2.121 2.121 0 01-2.1-2.128v-3.738a.332.332 0 00-.337-.336.332.332 0 00-.335.336V54.2zm8.291-.014a2.802 2.802 0 002.772 2.8c.854 0 1.61-.392 2.128-.98v.448a2.575 2.575 0 01-3.71 2.282c-.168-.042-.35 0-.434.168-.084.154-.014.35.14.448.434.196.91.322 1.414.322 1.806 0 3.262-1.428 3.262-3.22v-5.992a.27.27 0 00-.042-.14c-.014-.042-.056-.084-.084-.112a.856.856 0 00-.168-.07H92.1c-.014 0-.028.014-.042.014h-.028a.252.252 0 00-.126.084c-.014 0-.014.014-.028.014 0 .014-.014.028-.014.042-.042.042-.056.112-.056.168v3.724a2.124 2.124 0 01-2.128 2.114 2.1 2.1 0 01-2.1-2.114v-3.724c0-.182-.154-.322-.35-.322a.326.326 0 00-.322.322v3.724zm7.21 4.074c0 .14.112.21.21.21.126 0 .476-.196.728-.448.251-.252.377-.672.377-1.456v-.35a.449.449 0 00-.462-.462.449.449 0 00-.462.462v.294c0 .28.168.434.378.49.042.49-.154.798-.657 1.078a.218.218 0 00-.112.182zm7.997-2.66c.812.644 2.114 1.4 3.612 1.414.98 0 1.862-.294 2.52-.77.658-.476 1.106-1.176 1.106-1.96s-.434-1.428-1.078-1.848c-.644-.434-1.512-.714-2.492-.896h-.028c-.882-.168-1.61-.406-2.1-.742-.49-.336-.714-.7-.728-1.19 0-.504.28-.98.77-1.344.49-.35 1.204-.588 2.002-.588 1.078 0 1.918.532 2.688 1.036.14.098.336.056.42-.084a.312.312 0 00-.084-.434c-.77-.504-1.736-1.134-3.024-1.134-.924 0-1.75.266-2.366.714-.616.448-1.022 1.092-1.022 1.834 0 .728.406 1.316 1.008 1.708.602.406 1.4.658 2.31.826h.028c.952.182 1.736.448 2.268.798.532.364.798.784.798 1.344 0 .546-.294 1.064-.84 1.456-.532.392-1.302.644-2.156.644-1.274.014-2.492-.672-3.22-1.26a.299.299 0 00-.434.042.325.325 0 00.042.434zm12.572 1.4a3.27 3.27 0 002.772-1.554c.098-.168.042-.364-.112-.476a.327.327 0 00-.448.112 2.579 2.579 0 01-2.212 1.246c-1.414 0-2.59-1.134-2.66-2.632h5.628c.182 0 .336-.126.336-.308v-.056c-.14-1.792-1.54-3.192-3.304-3.192-1.848 0-3.332 1.54-3.332 3.444 0 1.876 1.484 3.416 3.332 3.416zm0-6.188c1.26 0 2.352.938 2.576 2.226h-5.194c.252-1.302 1.33-2.226 2.618-2.226zm5.927 5.852a.344.344 0 00.686 0v-9.128a.344.344 0 00-.686 0v9.128zm3.627 0a.344.344 0 00.686 0v-9.128a.344.344 0 00-.686 0v9.128zm7.585-4.634c.014 2.744 2.086 4.97 4.732 4.97 2.618 0 4.676-2.226 4.69-4.97-.014-2.744-2.072-4.97-4.69-4.97-2.646 0-4.718 2.226-4.732 4.97zm.686 0c0-2.422 1.82-4.27 4.046-4.27 2.156 0 3.976 1.848 3.99 4.27-.014 2.394-1.834 4.284-3.99 4.284-2.226 0-4.046-1.89-4.046-4.284zm11.629 4.634c0 .196.154.336.35.336.168 0 .322-.14.322-.336v-3.01c0-.028 0-.056.028-.112.098-.28.364-.98.826-1.596.476-.616 1.092-1.12 1.988-1.12a.34.34 0 00.336-.336.332.332 0 00-.336-.336c-1.316 0-2.226.868-2.744 1.68-.042.056-.07.112-.098.168V50.49a.329.329 0 00-.322-.336c-.196 0-.35.14-.35.336v6.174zm15.921-.266c.154.308.448.448.63.448h.028c.084 0 .154-.014.168-.014a.38.38 0 00.224-.448c-.056-.154-.224-.238-.378-.224-.014-.014-.084-.07-.14-.238-.07-.21-.126-.56-.126-1.134 0-1.106-.672-1.82-1.316-2.184-.056-.028-.098-.042-.14-.07A2.8 2.8 0 00160.62 50c0-1.554-1.246-2.8-2.786-2.8h-2.8a.347.347 0 00-.308.336v9.128a.344.344 0 00.686 0v-3.878h2.38c.014 0 .028.014.07.028.182.028.7.182 1.134.49.434.322.798.77.798 1.484 0 .826.098 1.288.266 1.61zM159.948 50a2.12 2.12 0 01-2.058 2.114h-2.478v-4.228h2.422c1.162 0 2.114.938 2.114 2.114zm6.416 7a3.27 3.27 0 002.772-1.554c.098-.168.042-.364-.112-.476a.327.327 0 00-.448.112 2.579 2.579 0 01-2.212 1.246c-1.414 0-2.59-1.134-2.66-2.632h5.628c.182 0 .336-.126.336-.308v-.056c-.14-1.792-1.54-3.192-3.304-3.192-1.848 0-3.332 1.54-3.332 3.444 0 1.876 1.484 3.416 3.332 3.416zm0-6.188c1.26 0 2.352.938 2.576 2.226h-5.194c.252-1.302 1.33-2.226 2.618-2.226zm10.729 5.852c0 .196.154.336.336.336.182 0 .336-.14.336-.336V52.94a2.793 2.793 0 00-2.786-2.786 2.78 2.78 0 00-2.128.994v-.658a.329.329 0 10-.658 0v6.258s.014.014.014.028 0 .028.014.042a.367.367 0 00.224.182h.084a.3.3 0 00.252-.126c.042-.042.056-.098.07-.154v-3.78c.028-1.162.966-2.114 2.128-2.114 1.176 0 2.114.952 2.114 2.114v3.724zm5.884-6.524h-.882v-2.548c0-.168-.182-.336-.364-.336a.361.361 0 00-.336.336v2.548h-.854c-.336 0-.336.168-.336.336s0 .336.336.336h.854v4.998c0 .686.518 1.19 1.204 1.19.168 0 .35-.168.35-.336s-.182-.35-.35-.35c-.168 0-.504-.168-.504-.504v-4.998h.882a.361.361 0 00.336-.336.361.361 0 00-.336-.336zM73.148 36c-.84 0-1.488-.228-1.944-.684-.456-.456-.684-1.104-.684-1.944V13.248c0-.84.228-1.488.684-1.944.456-.456 1.104-.684 1.944-.684h7.236c2.76 0 5.136.504 7.128 1.512s3.516 2.46 4.572 4.356 1.584 4.164 1.584 6.804c0 2.64-.528 4.92-1.584 6.84-1.032 1.896-2.544 3.348-4.536 4.356C85.556 35.496 83.168 36 80.384 36h-7.236zm6.84-4.536c5.4 0 8.1-2.724 8.1-8.172 0-5.424-2.7-8.136-8.1-8.136h-3.852v16.308h3.852zm25.153 4.824c-1.872 0-3.516-.372-4.932-1.116-1.416-.768-2.508-1.836-3.276-3.204-.768-1.392-1.152-3.024-1.152-4.896 0-1.872.384-3.492 1.152-4.86a7.81 7.81 0 013.276-3.204c1.416-.744 3.06-1.116 4.932-1.116 1.872 0 3.516.372 4.932 1.116a7.81 7.81 0 013.276 3.204c.768 1.368 1.152 2.988 1.152 4.86 0 1.872-.384 3.504-1.152 4.896-.768 1.368-1.86 2.436-3.276 3.204-1.416.744-3.06 1.116-4.932 1.116zm0-4.14c2.64 0 3.96-1.692 3.96-5.076 0-1.704-.348-2.976-1.044-3.816-.672-.84-1.644-1.26-2.916-1.26-2.64 0-3.96 1.692-3.96 5.076 0 3.384 1.32 5.076 3.96 5.076zm22.316-14.184c.72-.048 1.284.12 1.692.504.432.36.648.912.648 1.656 0 .792-.192 1.38-.576 1.764-.384.384-1.068.624-2.052.72l-1.08.108c-1.32.144-2.28.576-2.88 1.296-.576.72-.864 1.644-.864 2.772v6.876c0 .84-.264 1.476-.792 1.908-.504.432-1.14.648-1.908.648-.792 0-1.452-.216-1.98-.648-.504-.432-.756-1.068-.756-1.908V20.448c0-.792.264-1.404.792-1.836.528-.432 1.164-.648 1.908-.648.72 0 1.32.216 1.8.648.48.408.72.984.72 1.728v.972c.432-1.032 1.08-1.824 1.944-2.376a6.195 6.195 0 012.88-.936l.504-.036zm16.834 12.78c.48 0 .864.192 1.152.576.312.384.468.876.468 1.476 0 .408-.12.792-.36 1.152-.24.336-.576.624-1.008.864-.816.432-1.764.792-2.844 1.08-1.08.264-2.076.396-2.988.396-1.92 0-3.6-.372-5.04-1.116-1.416-.744-2.508-1.8-3.276-3.168-.768-1.392-1.152-3.024-1.152-4.896 0-1.8.372-3.396 1.116-4.788.744-1.392 1.776-2.472 3.096-3.24 1.32-.792 2.82-1.188 4.5-1.188 1.608 0 3.012.36 4.212 1.08 1.224.696 2.172 1.704 2.844 3.024.672 1.296 1.008 2.82 1.008 4.572 0 .528-.132.936-.396 1.224-.24.264-.588.396-1.044.396h-10.08c.168 1.416.6 2.448 1.296 3.096.696.624 1.692.936 2.988.936.696 0 1.32-.084 1.872-.252a18.086 18.086 0 001.836-.684c.336-.144.66-.264.972-.36.312-.12.588-.18.828-.18zm-6.192-9.108c-1.032 0-1.86.336-2.484 1.008-.624.648-.996 1.596-1.116 2.844h6.948c-.072-1.272-.396-2.232-.972-2.88-.552-.648-1.344-.972-2.376-.972zm32.083-3.744c1.92 0 3.396.588 4.428 1.764 1.032 1.152 1.548 3.048 1.548 5.688v8.316c0 .84-.252 1.476-.756 1.908-.504.432-1.152.648-1.944.648-.768 0-1.416-.216-1.944-.648-.528-.432-.792-1.068-.792-1.908v-8.388c0-1.152-.204-1.956-.612-2.412-.384-.48-.984-.72-1.8-.72-1.008 0-1.812.348-2.412 1.044-.6.696-.9 1.668-.9 2.916v7.56c0 .84-.252 1.476-.756 1.908-.504.432-1.152.648-1.944.648-.768 0-1.416-.216-1.944-.648-.528-.432-.792-1.068-.792-1.908v-8.388c0-1.152-.204-1.956-.612-2.412-.384-.48-.984-.72-1.8-.72-1.008 0-1.812.348-2.412 1.044-.6.696-.9 1.668-.9 2.916v7.56c0 .84-.264 1.476-.792 1.908-.504.432-1.14.648-1.908.648s-1.416-.216-1.944-.648c-.528-.432-.792-1.068-.792-1.908V20.448c0-.792.264-1.404.792-1.836.552-.432 1.212-.648 1.98-.648.72 0 1.32.216 1.8.648.48.408.72.984.72 1.728v.36c.576-.912 1.32-1.608 2.232-2.088.936-.48 1.992-.72 3.168-.72 1.272 0 2.34.264 3.204.792.888.504 1.572 1.332 2.052 2.484a6.02 6.02 0 012.34-2.376c1.032-.6 2.196-.9 3.492-.9zm11.908 18.324c-.792 0-1.452-.216-1.98-.648-.504-.432-.756-1.068-.756-1.908V20.52c0-.84.264-1.476.792-1.908.528-.432 1.176-.648 1.944-.648s1.404.216 1.908.648c.528.432.792 1.068.792 1.908v13.14c0 .84-.264 1.476-.792 1.908-.504.432-1.14.648-1.908.648zm0-21.132c-.96 0-1.716-.24-2.268-.72-.552-.504-.828-1.176-.828-2.016 0-.84.276-1.5.828-1.98.552-.48 1.308-.72 2.268-.72.936 0 1.68.252 2.232.756.576.48.864 1.128.864 1.944 0 .84-.276 1.512-.828 2.016-.552.48-1.308.72-2.268.72z" fill="#222"/></svg>